<?xml version="1.0" encoding="utf-8"?>
<!-- Generator: Adobe Illustrator 24.1.0, SVG Export Plug-In . SVG Version: 6.00 Build 0)  -->
<svg version="1.1" id="Warstwa_1" xmlns="http://www.w3.org/2000/svg" xmlns:xlink="http://www.w3.org/1999/xlink" x="0px" y="0px"
	 viewBox="0 0 1000 1000" style="enable-background:new 0 0 1000 1000;" xml:space="preserve">
<style type="text/css">
	.st0{opacity:0.5;}
	.st1{fill:url(#SVGID_1_);}
	.st2{fill:#F5F5F5;}
	.st3{fill:#FDD835;}
	.st4{fill:#02C9DA;}
	.st5{opacity:0.1;enable-background:new    ;}
	.st6{fill:#FDB797;}
</style>
<g class="st0">
	
		<linearGradient id="SVGID_1_" gradientUnits="userSpaceOnUse" x1="500.3913" y1="51.6666" x2="500.3913" y2="951.6667" gradientTransform="matrix(1 0 0 -1 0 1002)">
		<stop  offset="0" style="stop-color:#808080;stop-opacity:0.25"/>
		<stop  offset="0.54" style="stop-color:#808080;stop-opacity:0.12"/>
		<stop  offset="1" style="stop-color:#808080;stop-opacity:0.1"/>
	</linearGradient>
	<circle class="st1" cx="500.39" cy="500.33" r="450"/>
</g>
<circle class="st2" cx="500.39" cy="497.89" r="440.49"/>
<path class="st3" d="M744.05,537.49c0,162.23-105.85,342.83-236.44,342.83s-236.32-180.6-236.32-342.83s105.85-244.63,236.44-244.63
	S744.05,375.3,744.05,537.49z"/>
<path class="st4" d="M501.63,939.73c86.08,0.14,170.29-25.06,242.14-72.46c-16.23-88.69-78.01-93.77-78.01-93.77H325.19
	c0,0-58.24,4.78-76.5,86.4C322.74,911.98,411.1,939.87,501.63,939.73z"/>
<path class="st5" d="M428.4,665.28h136.25l0,0v109c0,37.61-30.49,68.11-68.11,68.11l0,0c-37.61,0-68.11-30.49-68.11-68.11v-109
	H428.4z"/>
<path class="st6" d="M441.41,660.23h110.24c7.18,0,13.01,5.82,13.01,13.01v95.99c0,37.61-30.49,68.11-68.11,68.11l0,0
	c-37.61,0-68.11-30.49-68.11-68.11v-95.99C428.44,666.07,434.24,660.26,441.41,660.23z"/>
<path class="st5" d="M428.67,716.73c43.91,16.41,92.25,16.55,136.25,0.39v-16.74H428.67V716.73z"/>
<circle class="st6" cx="497.01" cy="530.58" r="195.28"/>
<ellipse class="st6" cx="305.78" cy="522.23" rx="18.17" ry="34.05"/>
<ellipse class="st6" cx="687.24" cy="522.23" rx="18.17" ry="34.05"/>
<path class="st5" d="M323.99,424.65c0,0,110.39,151.09,363.56,99.48c0,0,28.27-34.4-40.54-140.02S386.62,295.7,323.99,424.65z"/>
<path class="st3" d="M323.99,422.21c0,0,110.39,151.09,363.56,99.48c0,0,28.27-34.4-40.54-140.02S386.62,293.25,323.99,422.21z"/>
</svg>
