<?xml version="1.0" encoding="utf-8"?>
<!-- Generator: Adobe Illustrator 24.1.0, SVG Export Plug-In . SVG Version: 6.00 Build 0)  -->
<svg version="1.1" id="Warstwa_1" xmlns="http://www.w3.org/2000/svg" xmlns:xlink="http://www.w3.org/1999/xlink" x="0px" y="0px"
	 viewBox="0 0 1000 1000" style="enable-background:new 0 0 1000 1000;" xml:space="preserve">
<style type="text/css">
	.st0{opacity:0.5;}
	.st1{fill:url(#SVGID_1_);}
	.st2{fill:#F5F5F5;}
	.st3{fill:#02C9DA;}
	.st4{fill:#333333;}
	.st5{opacity:0.1;enable-background:new    ;}
	.st6{fill:#FDA57D;}
</style>
<g class="st0">
	
		<linearGradient id="SVGID_1_" gradientUnits="userSpaceOnUse" x1="500.3913" y1="51.6667" x2="500.3913" y2="951.6666" gradientTransform="matrix(1 0 0 -1 0 1002)">
		<stop  offset="0" style="stop-color:#808080;stop-opacity:0.25"/>
		<stop  offset="0.54" style="stop-color:#808080;stop-opacity:0.12"/>
		<stop  offset="1" style="stop-color:#808080;stop-opacity:0.1"/>
	</linearGradient>
	<circle class="st1" cx="500.39" cy="500.33" r="450"/>
</g>
<circle class="st2" cx="501.25" cy="497.42" r="440.49"/>
<path class="st3" d="M501.63,939.69c86.08,0.14,170.29-25.06,242.14-72.46c-16.27-88.73-78.01-93.81-78.01-93.81H325.19
	c0,0-58.24,4.78-76.5,86.4C322.74,911.92,411.1,939.82,501.63,939.69z"/>
<circle class="st4" cx="497.01" cy="488.14" r="212.63"/>
<path class="st5" d="M428.36,665.24h136.25l0,0v109c0.06,37.61-30.38,68.16-67.99,68.22c-0.04,0-0.08,0-0.12,0l0,0
	c-37.61,0-68.11-30.49-68.11-68.11V665.24H428.36z"/>
<path class="st6" d="M441.25,660.2h110.24c7.18,0,13.01,5.82,13.01,13.01v95.99c0,37.61-30.49,68.11-68.11,68.11l0,0
	c-37.61,0-68.11-30.49-68.11-68.11V673.2c0-7.18,5.82-13.01,13.01-13.01H441.25z"/>
<path class="st5" d="M428.52,716.69c43.91,16.41,92.25,16.55,136.25,0.39v-16.74H428.52V716.69z"/>
<circle class="st6" cx="497.01" cy="530.54" r="195.28"/>
<path class="st5" d="M357.92,352.93c0,0,82.28,166.97,314.52,69.89l-54.05-84.77l-95.79-34.4L357.92,352.93z"/>
<path class="st4" d="M357.92,350.49c0,0,82.28,166.97,314.52,69.89l-54.05-84.77l-95.79-34.4L357.92,350.49z"/>
<path class="st4" d="M357.19,339.19c5.55-17.18,15.14-32.77,27.96-45.47c38.4-37.98,101.38-45.97,133.69-89.31
	c6.93,12.12,2.73,27.56-9.38,34.5c-0.74,0.42-1.49,0.8-2.27,1.15c31.06-0.19,66.83-2.91,84.3-28.38
	c8.83,20.55,5.03,44.34-9.75,61.12c27.41,1.24,56.69,19.84,58.48,47.26c1.16,18.25-10.25,35.53-25.28,46.01
	c-15.03,10.48-33.12,15.18-50.98,19.07C511.85,396.77,323.17,444.96,357.19,339.19z"/>
<path class="st4" d="M692.29,532.25h-5.16L586.4,621.99c-97.07-45.43-168.29,0-168.29,0l-105.62-85.97l-10.64,1.32
	c3.03,107.81,92.88,192.74,200.69,189.71c105.48-2.96,189.53-89.2,189.79-194.72L692.29,532.25z M496.74,656.31
	c-37.98,0-68.77-7.77-68.77-17.2c0-9.44,30.79-17.2,68.77-17.2s68.77,7.77,68.77,17.2c0,9.44-30.79,17.2-68.81,17.2H496.74z"/>
<ellipse class="st6" cx="301.66" cy="530.35" rx="18.17" ry="34.05"/>
<ellipse class="st6" cx="692.25" cy="530.35" rx="18.17" ry="34.05"/>
</svg>
